{"title":"Beautiful teen with huge round boobs pounded (censored)[VPSR].av","uid":10757875,"size":419899730,"categoryP":"porn","categoryS":"other","magnet":"?xt=urn:btih:17d19f4dbd5e2ba1620f73c97f676f1801a47569&amp;dn=Beautiful+teen+with+huge+round+boobs+pounded+%28censored%29%5BVPSR%5D.av&amp;tr=udp%3A%2F%2Ftracker.openbittorrent.com%3A80&amp;tr=udp%3A%2F%2Fopen.demonii.com%3A1337&amp;tr=udp%3A%2F%2Ftracker.coppersurfer.tk%3A6969&amp;tr=udp%3A%2F%2Fexodus.desync.com%3A6969","seeders":0,"leechers":7,"uploader":"vpsr","files":1,"time":1407948044,"description":"Beautiful teen with huge round boobs pounded (censored)[VPSR].avi\n\n &lt;a href=&quot;\nhttp://s25.postimg.org/wb56o3d7j/beautiful.jpg&quot; rel=&quot;nofollow&quot; target=&quot;_NEW&quot;&gt;\nhttp://s25.postimg.org/wb56o3d7j/beautiful.jpg&lt;/a&gt;\n\n &lt;a href=&quot;\nhttp://s25.postimg.org/fonmf0k9r/Beautiful_teen_with_huge_round_boobs_pounded_ce.jpg&quot; rel=&quot;nofollow&quot; target=&quot;_NEW&quot;&gt;\nhttp://s25.postimg.org/fonmf0k9r/Beautiful_teen_with_huge_round_boobs_pounded_ce.jpg&lt;/a&gt;\n\n\n\nFILE INFO\n\n\nGeneral\nComplete name                            : Beautiful teen with huge round boobs pounded (censored).avi\nFormat                                   : AVI\nFormat/Info                              : Audio Video Interleave\nFile size                                : 400 MiB\nDuration                                 : 49mn 9s\nOverall bit rate                         : 1 139 Kbps\nWriting application                      : MEncoder yawoo-SVN-r27394-4.2.4\nWriting library                          : VirtualDub build 34807/release\n\nVideo\nID                                       : 0\nFormat                                   : MPEG-4 Visual\nFormat profile                           : Simple@L1\nFormat settings, BVOP                    : No\nFormat settings, QPel                    : No\nFormat settings, GMC                     : No warppoints\nFormat settings, Matrix                  : Default (H.263)\nCodec ID                                 : DIVX\nCodec ID/Info                            : Project Mayo\nCodec ID/Hint                            : DivX 4\nDuration                                 : 49mn 9s\nBit rate                                 : 999 Kbps\nWidth                                    : 720 pixels\nHeight                                   : 406 pixels\nDisplay aspect ratio                     : 16:9\nFrame rate                               : 29.970 fps\nColor space                              : YUV\nChroma subsampling                       : 4:2:0\nBit depth                                : 8 bits\nScan type                                : Progressive\nCompression mode                         : Lossy\nBits/(Pixel*Frame)                       : 0.114\nStream size                              : 351 MiB (88%)\nWriting library                          : Lavc51.62.0\n\nAudio\nID                                       : 1\nFormat                                   : MPEG Audio\nFormat version                           : Version 1\nFormat profile                           : Layer 3\nCodec ID                                 : 55\nCodec ID/Hint                            : MP3\nDuration                                 : 49mn 9s\nBit rate mode                            : Constant\nBit rate                                 : 128 Kbps\nChannel(s)                               : 2 channels\nSampling rate                            : 48.0 KHz\nCompression mode                         : Lossy\nStream size                              : 45.0 MiB (11%)\nAlignment                                : Split accross interleaves\nInterleave, duration                     : 33 ms (1.00 video frame)\nInterleave, preload duration             : 500 ms\nWriting library                          : LAME3.98\n\n","torrent":{"xt":"urn:btih:17d19f4dbd5e2ba1620f73c97f676f1801a47569","amp;dn":"Beautiful+teen+with+huge+round+boobs+pounded+%28censored%29%5BVPSR%5D.av","amp;tr":["udp%3A%2F%2Ftracker.openbittorrent.com%3A80","udp%3A%2F%2Fopen.demonii.com%3A1337","udp%3A%2F%2Ftracker.coppersurfer.tk%3A6969","udp%3A%2F%2Fexodus.desync.com%3A6969"],"infoHash":"17d19f4dbd5e2ba1620f73c97f676f1801a47569","infoHashBuffer":{"type":"Buffer","data":[23,209,159,77,189,94,43,161,98,15,115,201,127,103,111,24,1,164,117,105]},"announce":[],"urlList":[]}}